HIERARCHY
ROOT Hips
{
	OFFSET -0.001795 -0.223333 0.028219
	CHANNELS 6 Xposition Yposition Zposition Zrotation Yrotation Xrotation 
	JOINT LeftUpLeg
	{
		OFFSET 0.069520 -0.091406 -0.006815
		CHANNELS 3 Zrotation Yrotation Xrotation
		JOINT LeftLeg
		{
			OFFSET 0.034277 -0.375199 -0.004496
			CHANNELS 3 Zrotation Yrotation Xrotation
			JOINT LeftFoot
			{
				OFFSET -0.013596 -0.397961 -0.043693
				CHANNELS 3 Zrotation Yrotation Xrotation
				JOINT LeftToe
				{
					OFFSET 0.026358 -0.055791 0.119288
					CHANNELS 3 Zrotation Yrotation Xrotation
					End Site
					{
						OFFSET 0.000000 0.000000 0.000000
					}
				}
			}
		}
	}
	JOINT RightUpLeg
	{
		OFFSET -0.067670 -0.090522 -0.004320
		CHANNELS 3 Zrotation Yrotation Xrotation
		JOINT RightLeg
		{
			OFFSET -0.038290 -0.382569 -0.008850
			CHANNELS 3 Zrotation Yrotation Xrotation
			JOINT RightFoot
			{
				OFFSET 0.015774 -0.398415 -0.042312
				CHANNELS 3 Zrotation Yrotation Xrotation
				JOINT RightToe
				{
					OFFSET -0.025372 -0.048144 0.123348
					CHANNELS 3 Zrotation Yrotation Xrotation
					End Site
					{
						OFFSET 0.000000 0.000000 0.000000
					}
				}
			}
		}
	}
	JOINT Spine
	{
		OFFSET -0.002533 0.108963 -0.026696
		CHANNELS 3 Zrotation Yrotation Xrotation
		JOINT Spine1
		{
			OFFSET 0.005487 0.135180 0.001092
			CHANNELS 3 Zrotation Yrotation Xrotation
			JOINT Spine2
			{
				OFFSET 0.001457 0.052922 0.025425
				CHANNELS 3 Zrotation Yrotation Xrotation
				JOINT Neck
				{
					OFFSET -0.002778 0.213870 -0.042857
					CHANNELS 3 Zrotation Yrotation Xrotation
					JOINT Head
					{
						OFFSET 0.005152 0.064970 0.051349
						CHANNELS 3 Zrotation Yrotation Xrotation
						End Site
						{
							OFFSET 0.000000 0.000000 0.000000
						}
					}
				}
				JOINT LeftShoulder
				{
					OFFSET 0.078845 0.121749 -0.034090
					CHANNELS 3 Zrotation Yrotation Xrotation
					JOINT LeftArm
					{
						OFFSET 0.090977 0.030469 -0.008868
						CHANNELS 3 Zrotation Yrotation Xrotation
						JOINT LeftForeArm
						{
							OFFSET 0.259612 -0.012772 -0.027456
							CHANNELS 3 Zrotation Yrotation Xrotation
							JOINT LeftHand
							{
								OFFSET 0.249234 0.008986 -0.001171
								CHANNELS 3 Zrotation Yrotation Xrotation
								End Site
								{
									OFFSET 0.000000 0.000000 0.000000
								}
							}
						}
					}
				}
				JOINT RightShoulder
				{
					OFFSET -0.081759 0.118833 -0.038615
					CHANNELS 3 Zrotation Yrotation Xrotation
					JOINT RightArm
					{
						OFFSET -0.096012 0.032551 -0.009143
						CHANNELS 3 Zrotation Yrotation Xrotation
						JOINT RightForeArm
						{
							OFFSET -0.253742 -0.013329 -0.021401
							CHANNELS 3 Zrotation Yrotation Xrotation
							JOINT RightHand
							{
								OFFSET -0.255298 0.007772 -0.005559
								CHANNELS 3 Zrotation Yrotation Xrotation
								End Site
								{
									OFFSET 0.000000 0.000000 0.000000
								}
							}
						}
					}
				}
			}
		}
	}
}
MOTION
Frames: 10
Frame Time: 0.050000
0.000000 0.947144 0.000000 -0.755472 1.967447 -2.253130 3.169056 0.172313 3.399604 0.955283 -0.063116 -0.904586 -2.973088 -1.893724 7.925917 0.000000 0.000000 0.000000 -2.048193 0.103009 -0.905430 -1.829979 0.265102 1.137211 -1.069361 -6.576580 11.321727 0.000000 0.000000 0.000000 3.140942 -0.324353 4.702324 -1.413731 0.584143 4.752364 -2.461967 1.452402 -4.027795 4.937416 -4.705985 4.780616 0.000000 0.000000 0.000000 -19.276524 -4.947795 -0.324174 -51.452026 -0.908051 -4.771732 -10.546110 -23.143983 2.773707 0.000000 0.000000 0.000000 20.464307 -0.999281 -1.980992 57.405120 -0.235400 -4.932740 7.263705 25.513521 2.401731 0.000000 0.000000 0.000000 
-0.000121 0.947577 -0.000427 -0.787896 1.838460 -2.130580 3.127927 0.216044 4.080105 1.093130 -0.012926 -2.371673 -3.053042 -1.813797 8.412026 0.000000 0.000000 0.000000 -2.507315 0.099210 -0.811535 -0.943649 0.134214 0.631162 -0.927077 -6.393734 11.581058 0.000000 0.000000 0.000000 3.435707 -0.314746 4.377330 -2.108251 0.949139 5.368859 -2.165444 1.301975 -4.387317 4.646885 -4.507986 5.176239 0.000000 0.000000 0.000000 -19.737709 -4.514909 -0.537043 -51.612041 -0.964253 -4.740926 -9.334009 -23.748027 2.604317 0.000000 0.000000 0.000000 19.912334 -0.571179 -1.787356 58.971504 -0.901713 -5.345776 6.822443 26.309649 2.364970 0.000000 0.000000 0.000000 
-0.000001 0.947097 -0.000816 -0.488795 1.922698 -2.343543 3.012554 0.214197 3.947079 0.711745 -0.004165 -1.765692 -3.063586 -1.915831 8.227940 0.000000 0.000000 0.000000 -2.871355 0.112514 -0.981260 -0.895118 0.162565 1.358635 -1.033052 -6.488243 11.209738 0.000000 0.000000 0.000000 3.140462 -0.312709 4.559339 -1.630738 0.721843 3.792204 -2.798374 1.778953 -3.277927 4.780863 -4.610409 4.780198 0.000000 0.000000 0.000000 -19.273815 -5.161671 -0.281949 -51.911779 -0.698075 -4.966869 -10.594213 -22.819391 2.734517 0.000000 0.000000 0.000000 21.385139 -0.073668 -1.404256 58.113898 -0.752583 -5.361288 6.172447 25.279146 2.178764 0.000000 0.000000 0.000000 
0.000023 0.946666 -0.001061 -0.515447 2.070732 -2.508591 3.031510 0.216644 4.011643 0.751941 -0.013380 -1.624526 -3.090734 -2.042336 8.038997 0.000000 0.000000 0.000000 -2.832109 0.126452 -1.192843 -0.905680 0.197457 2.079900 -1.158385 -6.644996 10.963109 0.000000 0.000000 0.000000 2.789318 -0.330480 5.064173 -1.708386 0.741436 4.775542 -1.905870 1.450169 -4.330606 4.609207 -4.538896 5.452365 0.000000 0.000000 0.000000 -19.363807 -4.812977 -0.384846 -52.829489 -0.041651 -5.289994 -9.833214 -23.621832 2.681676 0.000000 0.000000 0.000000 20.531651 0.388673 -1.258454 58.210193 -1.142591 -5.418667 6.456410 26.072682 2.271957 0.000000 0.000000 0.000000 
-0.000056 0.946248 -0.001270 -0.473101 2.310977 -3.024012 2.753773 0.257626 4.450904 1.217283 -0.062575 -1.482506 -3.152749 -2.233665 7.829315 0.000000 0.000000 0.000000 -3.066317 0.090667 -0.779275 -0.560792 0.166797 2.403565 -1.269417 -6.781956 10.759287 0.000000 0.000000 0.000000 2.571270 -0.352053 5.617508 -1.537263 0.648515 4.700214 -1.621453 1.429356 -4.085469 4.142083 -4.025653 4.772176 0.000000 0.000000 0.000000 -19.652541 -5.143059 -0.232220 -52.804886 0.292596 -5.455184 -11.194030 -22.627692 2.841621 0.000000 0.000000 0.000000 20.342375 0.826052 -0.994666 57.977010 -1.158730 -5.433541 7.239811 26.425758 2.479280 0.000000 0.000000 0.000000 
-0.000386 0.945216 -0.001622 -0.547351 1.849146 -3.016050 2.823021 0.224427 3.896383 1.206061 -0.110735 -0.416243 -2.768177 -1.864763 7.245468 0.000000 0.000000 0.000000 -3.042994 0.156192 -1.620150 -0.424399 0.204202 3.726486 -1.190758 -6.529955 10.208898 0.000000 0.000000 0.000000 2.274944 -0.373710 6.196823 -1.453378 0.618292 4.451752 -0.945981 1.242286 -3.716527 3.995596 -3.936587 5.106814 0.000000 0.000000 0.000000 -19.815962 -5.369368 0.041958 -53.286937 1.132590 -5.953282 -11.022584 -22.219667 2.789621 0.000000 0.000000 0.000000 19.601691 1.619135 -0.647247 58.718643 -0.669995 -5.289201 6.956914 27.182369 2.467267 0.000000 0.000000 0.000000 
-0.000905 0.944138 -0.002781 -0.593267 1.039595 -3.072574 2.627729 0.211930 3.451910 1.576474 -0.200723 0.590523 -2.214897 -1.181008 6.691171 0.000000 0.000000 0.000000 -2.868485 0.238892 -2.655211 -0.595799 0.301110 5.335106 -0.981562 -6.035828 9.622649 0.000000 0.000000 0.000000 2.343400 -0.423339 6.956039 -1.698787 0.773394 3.917459 -0.689268 0.999989 -2.755013 4.341224 -4.057059 4.146846 0.000000 0.000000 0.000000 -19.806001 -5.535312 0.350380 -53.062447 1.888399 -6.381008 -11.496026 -22.043080 2.901639 0.000000 0.000000 0.000000 20.063798 2.217475 -0.492676 58.120140 -0.041053 -5.017896 7.460901 28.014154 2.643684 0.000000 0.000000 0.000000 
-0.001508 0.942835 -0.005343 -0.430916 -0.345381 -2.539303 2.176781 0.122143 1.851507 1.879041 -0.336218 2.500206 -1.334846 0.085500 6.117840 0.000000 0.000000 0.000000 -2.705016 0.436688 -5.089174 -1.128123 0.522671 7.962093 -0.614825 -5.231278 8.938708 0.000000 0.000000 0.000000 1.724516 -0.470885 8.474884 -1.757605 0.826741 3.688147 -0.309131 0.870572 -2.609558 4.962391 -4.246088 2.323017 0.000000 0.000000 0.000000 -19.271137 -5.236747 0.473267 -52.881670 2.601622 -6.724079 -12.866055 -22.579815 3.288700 0.000000 0.000000 0.000000 19.875303 2.602387 -0.499697 58.064414 0.412552 -4.775074 8.642472 30.524309 3.148755 0.000000 0.000000 0.000000 
-0.002298 0.940619 -0.009684 -0.335979 -2.370832 -2.155335 1.536117 -0.035910 -0.409800 2.556533 -0.612387 5.843655 -0.055300 2.028841 5.306529 0.000000 0.000000 0.000000 -2.152962 0.658418 -7.479103 -2.163975 0.880262 10.409941 -0.008349 -3.920348 8.163696 0.000000 0.000000 0.000000 1.349435 -0.564144 11.118232 -1.797903 0.874854 2.882958 -0.221976 1.088473 -2.308477 4.649515 -3.727042 0.637883 0.000000 0.000000 0.000000 -18.488113 -4.922056 0.561116 -53.031165 3.007868 -6.981208 -13.458597 -24.333288 3.723203 0.000000 0.000000 0.000000 19.653542 4.034449 0.101793 57.809340 1.411557 -4.266968 8.997503 32.747686 3.442144 0.000000 0.000000 0.000000 
-0.003417 0.936745 -0.016230 -0.201404 -4.731536 -1.816599 1.718844 -0.236017 -3.075238 1.745751 -0.627641 9.819793 1.299650 4.188739 4.406021 0.000000 0.000000 0.000000 -2.005476 0.968081 -10.763972 -2.399960 1.244319 14.168355 0.621260 -2.403840 7.175702 0.000000 0.000000 0.000000 0.607231 -0.608453 15.144051 -2.418067 1.194429 1.471104 0.671185 1.135249 -1.544344 5.112267 -3.582465 -3.059206 0.000000 0.000000 0.000000 -18.692588 -4.900866 0.889736 -52.894879 2.244583 -6.752695 -13.887402 -26.460645 4.253642 0.000000 0.000000 0.000000 19.856227 5.453691 0.530401 56.572264 2.633944 -3.595989 11.688238 36.533797 4.609609 0.000000 0.000000 0.000000 
